<?xml version="1.0" standalone="no"?>
<!DOCTYPE svg PUBLIC "-//W3C//DTD SVG 20010904//EN" "http://www.w3.org/TR/2001/REC-SVG-20010904/DTD/svg10.dtd">
<svg xmlns="http://www.w3.org/2000/svg" version="1.0" width="600.000000pt" height="480.000000pt" viewBox="0 0 600.000000 480.000000" preserveAspectRatio="xMidYMid meet">
<metadata>
Created by potrace 1.16, written by Peter Selinger 2001-2019
<meta name="Producer" content="Online-Convert"/></metadata>
<g transform="translate(0.000000,480.000000) scale(0.100000,-0.100000)" fill="#000000" stroke="none">
<path d="M2974 3140 c-21 -34 -39 -67 -40 -74 -4 -24 -33 -80 -34 -66 -1 8 -8 2 -15 -15 -8 -19 -9 -32 -3 -36 5 -4 -2 -19 -17 -35 -15 -16 -22 -30 -16 -32 16 -5 13 -32 -3 -32 -8 0 -18 -14 -21 -31 -5 -21 -10 -27 -15 -19 -13 22 -20 -5 -32 -124 -11 -109 -6 -193 18 -321 5 -27 4 -28 -7 -10 -7 11 -23 45 -36 75 -27 65 -28 55 -8 -66 16 -100 63 -246 100 -310 l24 -41 -132 -22 c-165 -29 -290 -64 -345 -99 -40 -26 -72 -72 -72 -105 0 -25 47 -74 88 -90 37 -15 38 -18 86 -156 27 -78 53 -141 58 -141 21 0 16 32 -22 138 -22 62 -40 117 -40 122 0 11 48 13 100 4 46 -8 108 -85 84 -105 -49 -40 26 -187 84 -164 13 5 10 11 -17 32 -53 42 -85 142 -41 130 39 -10 42 18 5 53 -19 19 -35 38 -35 42 0 12 35 9 48 -4 9 -9 15 -9 24 0 7 7 30 12 53 12 37 0 46 -6 117 -77 42 -43 79 -88 83 -100 8 -29 -2 -63 -20 -63 -20 0 -54 47 -61 86 -8 46 -24 43 -24 -3 0 -50 32 -103 63 -103 36 0 67 40 67 84 0 33 -8 47 -67 107 -53 56 -62 69 -45 69 11 0 24 -4 27 -10 4 -6 17 -4 35 5 18 9 56 15 98 15 62 0 71 -2 96 -29 28 -29 28 -31 21 -108 -4 -43 -11 -82 -15 -88 -5 -5 -8 -27 -7 -47 0 -21 3 -34 6 -29 4 5 15 10 26 13 16 3 20 11 18 38 -5 99 29 250 56 250 5 0 27 -57 49 -126 42 -131 42 -141 2 -157 -8 -3 3 -3 26 0 22 3 57 0 77 -5 39 -11 62 2 52 29 -3 10 13 21 51 36 35 14 51 17 44 8 -9 -10 -1 -20 35 -45 34 -23 50 -29 58 -21 7 7 3 17 -16 35 -37 34 -34 60 13 105 22 21 40 45 40 54 0 10 6 17 13 17 7 0 29 -45 50 -99 28 -74 42 -98 53 -94 18 7 19 -1 -16 90 -36 92 -35 90 -10 89 30 -1 24 18 -9 26 -21 6 -32 18 -45 51 -9 23 -16 46 -16 49 0 4 19 0 42 -8 49 -17 72 -5 62 34 -7 25 -34 30 -34 6 0 -12 -6 -14 -32 -8 -73 17 -84 8 -64 -53 l7 -21 -38 19 c-20 10 -46 19 -58 19 -39 0 -65 12 -65 30 0 10 10 21 23 26 18 6 13 8 -25 11 -26 2 -56 -1 -65 -6 -16 -9 -16 -10 3 -11 18 0 34 -17 34 -36 0 -2 -47 -4 -105 -4 -83 0 -105 3 -105 14 0 7 7 19 15 26 8 7 13 16 10 20 -3 5 2 34 10 66 8 32 15 69 15 83 0 24 0 24 -15 5 -14 -17 -15 -14 -13 40 l3 60 165 22 c194 26 333 57 378 84 41 25 43 60 5 89 -29 23 -40 27 -123 36 -73 8 -60 -1 19 -14 73 -12 111 -33 111 -61 0 -41 -101 -68 -379 -100 -101 -12 -187 -18 -191 -13 -14 15 -78 188 -85 228 -10 63 -18 74 -24 36 l-6 -34 -68 106 c-62 96 -87 120 -87 83 0 -7 -7 -21 -15 -32 -14 -17 -15 -14 -9 42 5 53 3 71 -22 130 -26 62 -29 82 -31 204 -2 74 1 158 7 185 5 28 12 65 15 84 3 18 12 49 20 69 24 56 10 48 -31 -18z m-45 -1219 c21 -28 23 -34 8 -28 -11 4 -31 10 -45 13 -21 4 -18 0 15 -19 56 -34 113 -77 113 -87 0 -5 -21 -2 -47 6 -73 22 -94 16 -31 -10 49 -20 144 -84 136 -91 -2 -1 -29 -5 -61 -9 l-58 -6 -14 32 c-12 30 -17 33 -57 33 -39 0 -44 -3 -57 -32 -13 -30 -19 -33 -57 -33 -40 0 -43 2 -54 36 -9 26 -15 33 -23 25 -6 -6 -21 -11 -32 -11 -12 0 -30 -10 -41 -21 -17 -19 -26 -21 -84 -15 -45 4 -69 11 -77 23 -19 24 -16 33 10 33 12 0 29 5 37 10 10 7 -9 10 -62 10 -59 0 -78 3 -78 13 0 49 145 104 383 147 132 24 144 22 176 -19z m617 -333 c15 -46 29 -89 32 -96 2 -7 -18 -22 -52 -38 -65 -29 -73 -27 -101 36 -14 31 -21 38 -31 29 -11 -9 -9 -20 11 -60 24 -47 25 -49 6 -49 -20 0 -24 10 -97 243 -5 15 4 17 100 17 l104 0 28 -82z"/>
<path d="M1970 1741 c0 -10 7 -38 15 -61 8 -24 14 -44 12 -46 -1 -2 -22 22 -45 52 -41 53 -67 73 -79 61 -3 -4 11 -57 32 -119 24 -72 40 -139 43 -186 3 -47 9 -71 16 -69 19 6 18 95 -3 179 -12 45 -20 83 -18 84 6 6 76 -111 104 -172 25 -58 52 -83 53 -51 2 30 -106 347 -117 347 -7 0 -13 -8 -13 -19z"/>
<path d="M2175 1740 c-27 -30 -16 -136 22 -220 36 -78 65 -110 98 -110 66 0 73 125 15 244 -49 99 -96 129 -135 86z m60 -31 c54 -65 102 -196 90 -249 -8 -37 -19 -38 -50 -4 -67 72 -123 284 -76 284 5 0 21 -14 36 -31z"/>
<path d="M4005 1750 c-3 -5 -16 -10 -29 -10 -33 0 -60 -33 -52 -64 3 -13 21 -45 40 -70 30 -38 33 -46 20 -57 -32 -26 -9 -121 38 -153 28 -20 39 -20 64 -1 16 13 16 14 1 9 -12 -4 -28 5 -51 29 -45 48 -60 128 -22 114 7 -3 19 -1 26 3 10 6 2 21 -33 60 -46 51 -67 94 -52 108 7 7 69 -55 77 -79 4 -10 9 -11 17 -3 9 8 7 25 -9 67 -22 60 -25 63 -35 47z"/>
</g>
</svg>
